<?xml version="1.0" encoding="UTF-8"?>
<!DOCTYPE svg PUBLIC "-//W3C//DTD SVG 1.1//EN" "http://www.w3.org/Graphics/SVG/1.1/DTD/svg11.dtd">
<!-- Creator: CorelDRAW 2019 (64-Bit) -->
<svg xmlns="http://www.w3.org/2000/svg" xml:space="preserve" width="76.4306mm" height="76.6542mm" version="1.1" style="shape-rendering:geometricPrecision; text-rendering:geometricPrecision; image-rendering:optimizeQuality; fill-rule:evenodd; clip-rule:evenodd"
viewBox="0 0 516.49 518"
 xmlns:xlink="http://www.w3.org/1999/xlink"
 xmlns:xodm="http://www.corel.com/coreldraw/odm/2003">
 <defs>
  <style type="text/css">
   <![CDATA[
    .str0 {stroke:#FDC619;stroke-width:17.16;stroke-linecap:round;stroke-miterlimit:22.9256;stroke-dasharray:34.327357 51.491036}
    .fil0 {fill:#FEFEFE}
    .fil1 {fill:#E63530;fill-rule:nonzero}
   ]]>
  </style>
 </defs>
 <g id="Слой_x0020_1">
  <metadata id="CorelCorpID_0Corel-Layer"/>
  <g id="_2010057339728">
   <circle class="fil0 str0" cx="258.03" cy="259" r="250.42"/>
   <path class="fil1" d="M173.63 207.24c0,18.9 -8.59,24.05 -18.47,24.05 -9.02,0 -16.75,-4.72 -16.75,-24.05l0 -27.06c0,-18.9 7.73,-24.06 16.75,-24.06 10.31,0 18.47,5.58 18.47,24.06l0 27.06zm204.46 131.01c0,18.47 -8.59,23.63 -18.04,23.63 -9.45,0 -17.18,-4.73 -17.18,-23.63l0 -26.63c0,-19.33 8.16,-24.91 17.18,-24.91 9.45,0 18.04,5.58 18.04,24.91l0 26.63zm-222.94 -52.83c43.81,0 76.89,-30.07 76.89,-77.32l0 -28.78c0,-47.25 -32.65,-78.61 -76.89,-78.61 -43.81,0 -76.46,31.36 -76.46,78.61l0 28.78c0,47.25 33.08,77.32 76.46,77.32zm204.03 -179.12l-61 0 -143.47 305.41 62.28 0 142.18 -305.41zm0.86 310.99c44.24,0 77.32,-30.93 77.32,-78.18l0 -28.35c0,-47.68 -33.08,-78.61 -77.32,-78.61 -44.24,0 -76.46,30.93 -76.46,78.61l0 28.35c0,47.25 32.22,78.18 76.46,78.18z"/>
  </g>
 </g>
</svg>