<?xml version="1.0" encoding="UTF-8"?>
<!DOCTYPE svg PUBLIC "-//W3C//DTD SVG 1.1//EN" "http://www.w3.org/Graphics/SVG/1.1/DTD/svg11.dtd">
<!-- Creator: CorelDRAW 2019 (64-Bit) -->
<svg xmlns="http://www.w3.org/2000/svg" xml:space="preserve" width="9.54mm" height="9.5151mm" version="1.1" style="shape-rendering:geometricPrecision; text-rendering:geometricPrecision; image-rendering:optimizeQuality; fill-rule:evenodd; clip-rule:evenodd"
viewBox="0 0 18.34 18.29"
 xmlns:xlink="http://www.w3.org/1999/xlink"
 xmlns:xodm="http://www.corel.com/coreldraw/odm/2003">
 <defs>
  <style type="text/css">
   <![CDATA[
    .str0 {stroke:#FDC619;stroke-width:1.3;stroke-linecap:round;stroke-linejoin:round;stroke-miterlimit:22.9256}
    .fil0 {fill:none}
    .fil1 {fill:#FDC619;fill-rule:nonzero}
   ]]>
  </style>
 </defs>
 <g id="Слой_x0020_1">
  <metadata id="CorelCorpID_0Corel-Layer"/>
  <g id="_2243144080608">
   <path class="fil0 str0" d="M9.17 3.96c2.87,0 5.19,2.32 5.19,5.19 0,2.87 -2.32,5.19 -5.19,5.19 -2.87,0 -5.19,-2.32 -5.19,-5.19 0,-2.87 2.32,-5.19 5.19,-5.19z"/>
   <polygon class="fil0 str0" points="9.17,0.65 10.27,1.93 11.69,1.03 12.36,2.57 13.98,2.14 14.17,3.81 15.85,3.87 15.53,5.52 17.12,6.07 16.34,7.56 17.69,8.56 16.5,9.74 17.5,11.09 16.01,11.88 16.57,13.47 14.92,13.78 14.98,15.46 13.31,15.27 12.88,16.89 11.34,16.22 10.44,17.64 9.17,16.54 7.9,17.64 7,16.22 5.46,16.89 5.03,15.27 3.36,15.46 3.42,13.78 1.77,13.47 2.33,11.88 0.84,11.09 1.84,9.74 0.65,8.56 2,7.56 1.22,6.07 2.81,5.52 2.49,3.87 4.17,3.81 4.36,2.14 5.98,2.57 6.65,1.03 8.07,1.93 "/>
   <path class="fil1" d="M10.78 11.99c0.91,0 1.4,-0.59 1.4,-1.36 0,-0.76 -0.49,-1.36 -1.4,-1.36 -0.9,0 -1.4,0.6 -1.4,1.36 0,0.77 0.49,1.36 1.4,1.36zm0.36 -4.95c0.02,-0.03 0.04,-0.09 0.05,-0.14 0.07,-0.23 -0.11,-0.45 -0.37,-0.52 -0.27,-0.07 -0.54,0.01 -0.68,0.22l-2.92 4.63 -0.04 0.09c-0.08,0.25 0.07,0.51 0.35,0.6 0.29,0.05 0.56,-0.02 0.7,-0.23l2.92 -4.64zm-0.36 4.07c-0.25,0 -0.37,-0.18 -0.37,-0.51 0,-0.3 0.12,-0.48 0.37,-0.48 0.25,0 0.37,0.18 0.37,0.48 0,0.33 -0.12,0.51 -0.37,0.51zm-3.22 -2.91c-0.25,0 -0.37,-0.18 -0.37,-0.5 0,-0.29 0.12,-0.47 0.37,-0.47 0.25,0 0.37,0.18 0.37,0.47 0,0.32 -0.12,0.5 -0.37,0.5zm0 0.87c0.9,0 1.4,-0.59 1.4,-1.36 0,-0.77 -0.49,-1.36 -1.4,-1.36 -0.91,0 -1.4,0.59 -1.4,1.36 0,0.77 0.49,1.36 1.4,1.36z"/>
  </g>
 </g>
</svg>
