<?xml version="1.0" encoding="UTF-8"?>
<!DOCTYPE svg PUBLIC "-//W3C//DTD SVG 1.1//EN" "http://www.w3.org/Graphics/SVG/1.1/DTD/svg11.dtd">
<!-- Creator: CorelDRAW 2019 (64-Bit) -->
<svg xmlns="http://www.w3.org/2000/svg" xml:space="preserve" width="11.0402mm" height="10.6102mm" version="1.1" style="shape-rendering:geometricPrecision; text-rendering:geometricPrecision; image-rendering:optimizeQuality; fill-rule:evenodd; clip-rule:evenodd"
viewBox="0 0 24.48 23.53"
 xmlns:xlink="http://www.w3.org/1999/xlink"
 xmlns:xodm="http://www.corel.com/coreldraw/odm/2003">
 <defs>
  <style type="text/css">
   <![CDATA[
    .str0 {stroke:#FDC619;stroke-width:1.5;stroke-linecap:round;stroke-linejoin:round;stroke-miterlimit:22.9256}
    .fil0 {fill:none}
    .fil1 {fill:#FEFEFE}
   ]]>
  </style>
 </defs>
 <g id="Слой_x0020_1">
  <metadata id="CorelCorpID_0Corel-Layer"/>
  <g id="_2243144077536">
   <polygon class="fil0 str0" points="19.51,18.62 23.73,19.5 18.21,10.57 12.68,13.24 18.21,22.78 "/>
   <polygon class="fil0 str0" points="4.97,18.62 0.75,19.5 6.28,10.57 11.8,13.24 6.28,22.78 "/>
   <path class="fil1 str0" d="M12.33 2.45c0.31,0 0.61,0.02 0.91,0.06l2.4 -1.56 0.91 2.96c0.27,0.21 0.52,0.44 0.75,0.69l2.79 0.34 -1.14 2.69c0.1,0.42 0.17,0.86 0.19,1.31l1.79 1.92 -2.38 1.22c-0.24,0.53 -0.54,1.02 -0.9,1.46l0.13 2.39 -2.41 -0.55c-0.6,0.3 -1.24,0.51 -1.92,0.62l-1.35 1.79 -1.44 -1.91c-0.69,-0.18 -1.34,-0.46 -1.92,-0.82l-2.18 0.5 0.13 -2.48c-0.35,-0.52 -0.64,-1.1 -0.83,-1.72l-2.11 -1.07 1.85 -1.99c0.07,-0.52 0.21,-1.01 0.39,-1.49l-1.01 -2.37 2.95 -0.37c0.29,-0.25 0.61,-0.47 0.94,-0.67l0.81 -2.65 2.62 1.7 0.04 -0z"/>
  </g>
 </g>
</svg>
