<?xml version="1.0" encoding="UTF-8"?>
<!DOCTYPE svg PUBLIC "-//W3C//DTD SVG 1.1//EN" "http://www.w3.org/Graphics/SVG/1.1/DTD/svg11.dtd">
<!-- Creator: CorelDRAW 2019 (64-Bit) -->
<svg xmlns="http://www.w3.org/2000/svg" xml:space="preserve" width="9.0672mm" height="9.4292mm" version="1.1" style="shape-rendering:geometricPrecision; text-rendering:geometricPrecision; image-rendering:optimizeQuality; fill-rule:evenodd; clip-rule:evenodd"
viewBox="0 0 16.49 17.15"
 xmlns:xlink="http://www.w3.org/1999/xlink"
 xmlns:xodm="http://www.corel.com/coreldraw/odm/2003">
 <defs>
  <style type="text/css">
   <![CDATA[
    .fil0 {fill:#FDC619}
   ]]>
  </style>
 </defs>
 <g id="Слой_x0020_1">
  <metadata id="CorelCorpID_0Corel-Layer"/>
  <path class="fil0" d="M16.46 0.2c0.03,0.07 0.04,0.14 0.04,0.19l0 0c0.02,0.59 -0.26,3.26 -0.86,5.23 -0.37,1.21 -0.87,2.17 -1.53,2.29 -0.46,0.08 -1.15,0.06 -1.83,0.03 -0.29,-0.01 -0.58,-0.02 -0.85,-0.02 0.14,0.07 0.29,0.14 0.43,0.21l0.01 0c0.65,0.32 1.28,0.62 1.16,0.93l-0 0c-0.18,0.41 -1.23,0.95 -2.55,1.46 -1.54,0.59 -3.46,1.15 -4.78,1.41 -0.39,0.08 -0.41,0.09 -0.53,0.25l-0.11 0.14c-0.14,0.17 -0.78,0.85 -1.44,1.54 -0.73,0.77 -1.5,1.56 -1.65,1.69l-0 0c-0.19,0.18 -0.57,0.43 -0.93,0.62 0.73,-0.02 1.59,0.01 2.49,0.04 1.6,0.05 3.34,0.11 4.71,-0.08 -0.18,-0.02 -0.41,-0.04 -0.67,-0.08 -1.21,-0.2 -2.83,-0.47 -2.92,-1.02l-0 -0.02c-0.06,-0.51 0.51,-0.72 1.18,-0.79 0.47,-0.05 1.01,-0.04 1.37,-0.04l0.22 0c1.27,0.01 2.43,0.14 3.56,0.34 1.13,0.21 2.23,0.49 3.4,0.8l0.11 0.04c0.14,0.05 0.29,0.1 0.41,0.19 0.05,0.04 0.08,0.1 0.07,0.16 -0.01,0.1 -0.1,0.17 -0.2,0.16 -0.7,-0.07 -1.48,-0.19 -2.29,-0.31 -1.45,-0.22 -3.02,-0.47 -4.44,-0.46l0.01 0c0.9,0.13 1.89,0.28 2.1,0.96 0.01,0.03 0.01,0.05 0.01,0.08 -0.14,1.05 -2.5,1.01 -3.64,0.99l-0.34 -0c-0.02,-0 -0.04,-0 -0.06,-0.01 -0.01,-0 -0.18,-0.01 -0.5,-0.03 -1.24,-0.09 -4.22,-0.32 -5.28,-0.53 -0.06,-0.01 -0.11,-0.05 -0.14,-0.1 -0.06,-0.01 -0.12,-0.03 -0.16,-0.07l-0.01 -0.01c-0.07,-0.07 -0.07,-0.15 -0.02,-0.23l0.01 -0.01c0.02,-0.03 0.06,-0.07 0.08,-0.1 1.24,-1.35 2.49,-2.68 3.74,-4.03l1.43 -2.6c0.5,-0.87 1.01,-1.72 1.57,-2.5 0.57,-0.79 1.2,-1.53 1.94,-2.16 0.34,-0.29 0.72,-0.58 1.12,-0.88 0.4,-0.29 0.81,-0.57 1.22,-0.85l4.74 -2.91c0.07,-0.06 0.14,-0.1 0.2,-0.12 0.09,-0.03 0.16,-0.02 0.22,0.01l0.02 0.01c0.06,0.04 0.1,0.09 0.12,0.15zm-7.79 16c-0,-0 -0.01,-0.01 -0.02,-0.01 0.02,0.03 0.03,0.04 0.02,0.02l-0 -0.01zm7.83 -15.81l0 0 -0 -0zm-9.67 8.5c0.11,-0.12 0.19,-0.18 0.28,-0.26l0.16 -0.14 3.32 -3.35c0.19,-0.18 0.38,-0.34 0.56,-0.51 0.13,-0.12 0.26,-0.23 0.42,-0.38l0.8 -0.78c-0.38,0.25 -0.73,0.49 -0.92,0.63l-2.19 1.65c-0.35,0.27 -0.74,0.71 -1.12,1.19 -0.5,0.63 -0.97,1.35 -1.3,1.9l-0.03 0.05zm-0.18 1.79c0.74,-0.16 1.8,-0.47 2.76,-0.8 0.81,-0.28 1.54,-0.58 1.93,-0.83 -0.11,-0.06 -0.22,-0.12 -0.33,-0.17 -0.21,-0.11 -0.43,-0.22 -0.64,-0.35 -0.13,-0.08 -0.23,-0.18 -0.31,-0.29 -0.1,-0.14 -0.16,-0.29 -0.18,-0.45 -0.02,-0.16 0.02,-0.33 0.11,-0.48 0.06,-0.09 0.13,-0.17 0.24,-0.25 0.34,-0.25 2.24,-0.21 3.28,-0.19l0.44 0.01c0.3,-0.45 0.59,-1.25 0.82,-2.14 0.27,-1.03 0.46,-2.18 0.55,-3.05 -0.25,0.15 -0.48,0.33 -0.7,0.53 -0.31,0.27 -0.6,0.58 -0.87,0.88l-7.09 7.58z"/>
 </g>
</svg>
