<?xml version="1.0" encoding="UTF-8"?>
<!DOCTYPE svg PUBLIC "-//W3C//DTD SVG 1.1//EN" "http://www.w3.org/Graphics/SVG/1.1/DTD/svg11.dtd">
<!-- Creator: CorelDRAW 2019 (64-Bit) -->
<svg xmlns="http://www.w3.org/2000/svg" xml:space="preserve" width="11.8562mm" height="8.1497mm" version="1.1" style="shape-rendering:geometricPrecision; text-rendering:geometricPrecision; image-rendering:optimizeQuality; fill-rule:evenodd; clip-rule:evenodd"
viewBox="0 0 194.09 133.41"
 xmlns:xlink="http://www.w3.org/1999/xlink"
 xmlns:xodm="http://www.corel.com/coreldraw/odm/2003">
 <defs>
  <style type="text/css">
   <![CDATA[
    .str0 {stroke:#FDC619;stroke-width:11.09;stroke-linecap:round;stroke-linejoin:round;stroke-miterlimit:22.9256}
    .fil0 {fill:none}
    .fil1 {fill:#FEFEFE}
   ]]>
  </style>
 </defs>
 <g id="Слой_x0020_1">
  <metadata id="CorelCorpID_0Corel-Layer"/>
  <path class="fil0 str0" d="M116.08 5.54c40.02,0 72.46,24.11 72.46,53.86 0,10.43 -3.99,20.16 -10.9,28.41 3.5,5.32 6.87,12.69 8.65,27.05 -6.65,-6.33 -16,-10.77 -24.55,-13.65 -12.46,7.53 -28.35,12.05 -45.67,12.05 -40.02,0 -72.46,-24.11 -72.46,-53.86 0,-29.75 32.44,-53.86 72.46,-53.86z"/>
  <path class="fil1 str0" d="M62.03 42.64c-31.2,0 -56.49,18.8 -56.49,41.99 0,8.13 3.11,15.72 8.49,22.15 -2.73,4.15 -5.35,9.89 -6.74,21.09 5.18,-4.93 12.47,-8.39 19.14,-10.64 9.72,5.87 22.11,9.39 35.6,9.39 31.2,0 56.49,-18.8 56.49,-41.99 0,-23.19 -25.29,-41.99 -56.49,-41.99z"/>
 </g>
</svg>
