<?xml version="1.0" encoding="UTF-8"?>
<!DOCTYPE svg PUBLIC "-//W3C//DTD SVG 1.1//EN" "http://www.w3.org/Graphics/SVG/1.1/DTD/svg11.dtd">
<!-- Creator: CorelDRAW 2019 (64-Bit) -->
<svg xmlns="http://www.w3.org/2000/svg" xml:space="preserve" width="11.2448mm" height="6.4207mm" version="1.1" style="shape-rendering:geometricPrecision; text-rendering:geometricPrecision; image-rendering:optimizeQuality; fill-rule:evenodd; clip-rule:evenodd"
viewBox="0 0 34.32 19.6"
 xmlns:xlink="http://www.w3.org/1999/xlink"
 xmlns:xodm="http://www.corel.com/coreldraw/odm/2003">
 <defs>
  <style type="text/css">
   <![CDATA[
    .fil0 {fill:#FDC619;fill-rule:nonzero}
   ]]>
  </style>
 </defs>
 <g id="Слой_x0020_1">
  <metadata id="CorelCorpID_0Corel-Layer"/>
  <path class="fil0" d="M8.08 1.29c-0.36,0 -0.65,-0.29 -0.65,-0.65 0,-0.36 0.29,-0.65 0.65,-0.65l15.55 0 0.09 0.01c2.95,0.23 5.19,1.45 6.83,3.03 2.38,2.28 3.51,5.31 3.77,7.14l0.01 0.09 0 5.59c0,0.36 -0.29,0.65 -0.65,0.65l-2.63 0c-0.14,0.77 -0.51,1.46 -1.04,2l-0 0c-0.68,0.68 -1.61,1.1 -2.64,1.1 -1.03,0 -1.96,-0.42 -2.64,-1.1l-0 -0c-0.53,-0.53 -0.91,-1.23 -1.04,-2l-5.18 0c-0.14,0.77 -0.51,1.46 -1.04,2l-0 0c-0.68,0.68 -1.61,1.1 -2.64,1.1 -1.03,0 -1.96,-0.42 -2.64,-1.1l-0 -0c-0.53,-0.53 -0.91,-1.23 -1.04,-2l-3.58 0c-0.36,0 -0.65,-0.29 -0.65,-0.65 0,-0.36 0.29,-0.65 0.65,-0.65l3.58 0c0.14,-0.77 0.51,-1.46 1.04,-2l0 -0c0.68,-0.68 1.61,-1.1 2.64,-1.1 1.03,0 1.96,0.42 2.64,1.1l0 0c0.53,0.53 0.91,1.22 1.04,2l5.18 0c0.14,-0.77 0.51,-1.46 1.04,-2l0 -0c0.68,-0.68 1.61,-1.1 2.64,-1.1 1.03,0 1.96,0.42 2.64,1.1l0 0c0.53,0.53 0.91,1.22 1.04,2l1.98 0 0 -4.91c-0.24,-1.64 -1.26,-4.31 -3.37,-6.33 -1.45,-1.39 -3.43,-2.46 -6.04,-2.67l-15.53 0zm-6.13 10.9c-0.36,0 -0.65,-0.29 -0.65,-0.65 0,-0.36 0.29,-0.65 0.65,-0.65l9.46 0c0.36,0 0.65,0.29 0.65,0.65 0,0.36 -0.29,0.65 -0.65,0.65l-9.46 0zm-1.31 -3.3c-0.36,0 -0.65,-0.29 -0.65,-0.65 0,-0.36 0.29,-0.65 0.65,-0.65l12.92 0c0.36,0 0.65,0.29 0.65,0.65 0,0.36 -0.29,0.65 -0.65,0.65l-12.92 0zm4.41 -3.43c-0.36,0 -0.65,-0.29 -0.65,-0.65 0,-0.36 0.29,-0.65 0.65,-0.65l9.46 0c0.36,0 0.65,0.29 0.65,0.65 0,0.36 -0.29,0.65 -0.65,0.65l-9.46 0zm24.04 8.66c-0.44,-0.44 -1.05,-0.71 -1.73,-0.71 -0.68,0 -1.29,0.27 -1.73,0.71l-0 0c-0.44,0.44 -0.71,1.05 -0.71,1.73 0,0.68 0.27,1.29 0.71,1.73l0 0c0.44,0.44 1.05,0.71 1.73,0.71 0.68,0 1.29,-0.27 1.73,-0.71l0 -0c0.44,-0.44 0.71,-1.05 0.71,-1.73 0,-0.68 -0.27,-1.29 -0.71,-1.73l-0 -0zm-12.55 0c-0.44,-0.44 -1.05,-0.71 -1.73,-0.71 -0.68,0 -1.29,0.27 -1.73,0.71l-0 0c-0.44,0.44 -0.71,1.05 -0.71,1.73 0,0.68 0.27,1.29 0.71,1.73l0 0c0.44,0.44 1.05,0.71 1.73,0.71 0.68,0 1.29,-0.27 1.73,-0.71l0 -0c0.44,-0.44 0.71,-1.05 0.71,-1.73 0,-0.68 -0.27,-1.29 -0.71,-1.73l-0 -0zm12.54 -6.45c-0.58,-0.84 -1.31,-1.56 -2.1,-2.11 -0.87,-0.61 -1.8,-1.02 -2.67,-1.15l0 3.27 4.78 0zm-1.36 -3.17c1.22,0.86 2.33,2.07 3.06,3.49 0.05,0.09 0.09,0.2 0.09,0.32 0,0.36 -0.29,0.65 -0.65,0.65l-6.56 0c-0.36,0 -0.65,-0.29 -0.65,-0.65l0 -4.61c0,-0.36 0.29,-0.64 0.65,-0.64 1.32,-0 2.77,0.53 4.06,1.44z"/>
 </g>
</svg>
