<?xml version="1.0" encoding="UTF-8"?>
<!DOCTYPE svg PUBLIC "-//W3C//DTD SVG 1.1//EN" "http://www.w3.org/Graphics/SVG/1.1/DTD/svg11.dtd">
<!-- Creator: CorelDRAW 2019 (64-Bit) -->
<svg xmlns="http://www.w3.org/2000/svg" xml:space="preserve" width="8.9492mm" height="6.0621mm" version="1.1" style="shape-rendering:geometricPrecision; text-rendering:geometricPrecision; image-rendering:optimizeQuality; fill-rule:evenodd; clip-rule:evenodd"
viewBox="0 0 51.73 35.04"
 xmlns:xlink="http://www.w3.org/1999/xlink"
 xmlns:xodm="http://www.corel.com/coreldraw/odm/2003">
 <defs>
  <style type="text/css">
   <![CDATA[
    .fil0 {fill:#FDC619;fill-rule:nonzero}
   ]]>
  </style>
 </defs>
 <g id="Слой_x0020_1">
  <metadata id="CorelCorpID_0Corel-Layer"/>
  <path class="fil0" d="M8.52 15.61l7.54 0 0 10.87c0,2.77 -0.68,4.89 -2.03,6.36 -1.35,1.47 -3.35,2.2 -5.99,2.2 -2.64,0 -4.64,-0.74 -6,-2.23 -1.35,-1.48 -2.03,-3.61 -2.03,-6.39l0 -17.81c0,-2.77 0.68,-4.9 2.03,-6.39 1.35,-1.48 3.35,-2.23 6,-2.23 2.64,0 4.64,0.74 5.99,2.23 1.35,1.48 2.03,3.61 2.03,6.39l0 3.33 -5.09 0 0 -3.67c0,-1.24 -0.25,-2.11 -0.76,-2.62 -0.51,-0.51 -1.18,-0.76 -2.03,-0.76 -0.85,0 -1.53,0.25 -2.03,0.76 -0.51,0.51 -0.76,1.39 -0.76,2.63l0 18.53c0,1.24 0.25,2.11 0.76,2.6 0.51,0.49 1.18,0.73 2.03,0.73 0.85,0 1.53,-0.25 2.03,-0.73 0.51,-0.49 0.76,-1.35 0.76,-2.59l0 -6.31 -2.45 0 0 -4.89zm17.81 -15.22c2.71,0 4.72,0.72 6.04,2.15 1.32,1.44 1.98,3.54 1.98,6.31l0 4.45c0,2.77 -0.66,4.88 -1.98,6.31 -1.32,1.44 -3.34,2.15 -6.04,2.15l-2.55 0 0 12.87 -5.38 0 0 -34.26 7.93 0zm-2.55 4.89l0 11.6 2.55 0c0.85,0 1.5,-0.23 1.96,-0.68 0.46,-0.46 0.69,-1.31 0.69,-2.55l0 -5.14c0,-1.24 -0.23,-2.09 -0.69,-2.55 -0.46,-0.46 -1.11,-0.68 -1.96,-0.68l-2.55 0zm12.04 3.34c0,-2.78 0.66,-4.91 1.98,-6.4 1.32,-1.48 3.3,-2.23 5.95,-2.23 2.64,0 4.62,0.74 5.95,2.23 1.32,1.48 1.98,3.61 1.98,6.39l0 1.32 -5.09 0 0 -1.66c0,-1.24 -0.24,-2.11 -0.71,-2.62 -0.47,-0.51 -1.13,-0.76 -1.98,-0.76 -0.85,0 -1.51,0.25 -1.98,0.76 -0.47,0.51 -0.71,1.38 -0.71,2.62 0,1.17 0.26,2.21 0.78,3.11 0.52,0.9 1.17,1.75 1.96,2.55 0.78,0.8 1.62,1.6 2.52,2.4 0.9,0.8 1.74,1.67 2.52,2.62 0.78,0.95 1.44,2.02 1.96,3.23 0.52,1.21 0.78,2.63 0.78,4.26 0,2.77 -0.68,4.9 -2.03,6.39 -1.35,1.48 -3.35,2.23 -6,2.23 -2.64,0 -4.64,-0.74 -6,-2.23 -1.35,-1.48 -2.03,-3.61 -2.03,-6.39l0 -2.35 5.09 0 0 2.72c0,1.25 0.25,2.12 0.76,2.61 0.51,0.5 1.18,0.74 2.03,0.74 0.85,0 1.53,-0.25 2.03,-0.73 0.51,-0.49 0.76,-1.35 0.76,-2.6 0,-1.17 -0.26,-2.21 -0.78,-3.11 -0.52,-0.91 -1.17,-1.75 -1.96,-2.55 -0.78,-0.8 -1.62,-1.6 -2.52,-2.4 -0.9,-0.8 -1.74,-1.68 -2.52,-2.63 -0.78,-0.95 -1.44,-2.02 -1.96,-3.23 -0.52,-1.22 -0.78,-2.63 -0.78,-4.27z"/>
 </g>
</svg>
