<?xml version="1.0" encoding="UTF-8"?>
<!DOCTYPE svg PUBLIC "-//W3C//DTD SVG 1.1//EN" "http://www.w3.org/Graphics/SVG/1.1/DTD/svg11.dtd">
<!-- Creator: CorelDRAW 2019 (64-Bit) -->
<svg xmlns="http://www.w3.org/2000/svg" xml:space="preserve" width="4.8283mm" height="3.8382mm" version="1.1" style="shape-rendering:geometricPrecision; text-rendering:geometricPrecision; image-rendering:optimizeQuality; fill-rule:evenodd; clip-rule:evenodd"
viewBox="0 0 6.85 5.45"
 xmlns:xlink="http://www.w3.org/1999/xlink"
 xmlns:xodm="http://www.corel.com/coreldraw/odm/2003">
 <defs>
  <style type="text/css">
   <![CDATA[
    .fil0 {fill:#2B2A29;fill-rule:nonzero}
   ]]>
  </style>
 </defs>
 <g id="Слой_x0020_1">
  <metadata id="CorelCorpID_0Corel-Layer"/>
  <path class="fil0" d="M5.19 4.15c0.18,0 0.34,0.07 0.46,0.19 0.12,0.12 0.19,0.28 0.19,0.46 0,0.18 -0.07,0.34 -0.19,0.46 -0.12,0.12 -0.28,0.19 -0.46,0.19 -0.18,0 -0.34,-0.07 -0.46,-0.19 -0.12,-0.12 -0.19,-0.28 -0.19,-0.46 0,-0.18 0.07,-0.34 0.19,-0.46 0.12,-0.12 0.28,-0.19 0.46,-0.19zm-5.01 -3.79c-0.1,0 -0.18,-0.08 -0.18,-0.18 0,-0.1 0.08,-0.18 0.18,-0.18l0.94 0c0.08,0 0.15,0.05 0.17,0.12l1.05 2.75 2.76 0 1.43 -2c0.06,-0.08 0.17,-0.1 0.25,-0.04 0.08,0.06 0.1,0.17 0.04,0.25l-1.48 2.06c-0.03,0.05 -0.09,0.08 -0.15,0.08l-2.71 0 0.12 0.3 2.63 0c0.1,0 0.18,0.08 0.18,0.18 0,0.1 -0.08,0.18 -0.18,0.18l-2.75 0c-0.07,-0 -0.14,-0.04 -0.17,-0.12l-0.25 -0.65 -0.01 -0.02 -1.05 -2.75 -0.81 0zm2.54 1.07c-0.1,0 -0.18,-0.08 -0.18,-0.18 0,-0.1 0.08,-0.18 0.18,-0.18l2.51 0c0.1,0 0.18,0.08 0.18,0.18 0,0.1 -0.08,0.18 -0.18,0.18l-2.51 0zm-0.7 -0.7c-0.1,0 -0.18,-0.08 -0.18,-0.18 0,-0.1 0.08,-0.18 0.18,-0.18l3.32 0c0.1,0 0.18,0.08 0.18,0.18 0,0.1 -0.08,0.18 -0.18,0.18l-3.32 0zm0.64 3.41c0.18,0 0.34,0.07 0.46,0.19 0.12,0.12 0.19,0.28 0.19,0.46 0,0.18 -0.07,0.34 -0.19,0.46 -0.12,0.12 -0.28,0.19 -0.46,0.19 -0.18,0 -0.34,-0.07 -0.46,-0.19 -0.12,-0.12 -0.19,-0.28 -0.19,-0.46 0,-0.18 0.07,-0.34 0.19,-0.46 0.12,-0.12 0.28,-0.19 0.46,-0.19zm0.26 0.39c-0.07,-0.07 -0.16,-0.11 -0.26,-0.11 -0.1,0 -0.19,0.04 -0.26,0.11 -0.07,0.07 -0.11,0.16 -0.11,0.26 0,0.1 0.04,0.19 0.11,0.26 0.07,0.07 0.16,0.11 0.26,0.11 0.1,0 0.19,-0.04 0.26,-0.11 0.07,-0.07 0.11,-0.16 0.11,-0.26 0,-0.1 -0.04,-0.19 -0.11,-0.26zm2.52 0c-0.07,-0.07 -0.16,-0.11 -0.26,-0.11 -0.1,0 -0.19,0.04 -0.26,0.11 -0.07,0.07 -0.11,0.16 -0.11,0.26 0,0.1 0.04,0.19 0.11,0.26 0.07,0.07 0.16,0.11 0.26,0.11 0.1,0 0.19,-0.04 0.26,-0.11 0.07,-0.07 0.11,-0.16 0.11,-0.26 0,-0.1 -0.04,-0.19 -0.11,-0.26z"/>
 </g>
</svg>
