<?xml version="1.0" encoding="UTF-8"?>
<!DOCTYPE svg PUBLIC "-//W3C//DTD SVG 1.1//EN" "http://www.w3.org/Graphics/SVG/1.1/DTD/svg11.dtd">
<!-- Creator: CorelDRAW 2019 (64-Bit) -->
<svg xmlns="http://www.w3.org/2000/svg" xml:space="preserve" width="3.5396mm" height="3.6689mm" version="1.1" style="shape-rendering:geometricPrecision; text-rendering:geometricPrecision; image-rendering:optimizeQuality; fill-rule:evenodd; clip-rule:evenodd"
viewBox="0 0 4.51 4.67"
 xmlns:xlink="http://www.w3.org/1999/xlink"
 xmlns:xodm="http://www.corel.com/coreldraw/odm/2003">
 <defs>
  <style type="text/css">
   <![CDATA[
    .fil0 {fill:#FDC619}
    .fil1 {fill:#FDC619;fill-rule:nonzero}
   ]]>
  </style>
 </defs>
 <g id="Слой_x0020_1">
  <metadata id="CorelCorpID_0Corel-Layer"/>
  <path class="fil0" d="M0.92 1.49l2.67 0c0.13,0 0.24,0.11 0.24,0.24l0 0.23 -3.15 0 0 -0.23c0,-0.13 0.11,-0.24 0.24,-0.24zm2.91 0.77l0 0.85c0,0.13 -0.11,0.24 -0.24,0.24l-2.67 0c-0.13,0 -0.24,-0.11 -0.24,-0.24l0 -0.85 3.15 0z"/>
  <path class="fil1" d="M0.84 0.69l0 -0.01 0.24 -0.6c0.03,-0.07 0.1,-0.1 0.16,-0.07 0.07,0.03 0.1,0.1 0.07,0.16l-0.1 0.24c0.1,-0.05 0.2,-0.1 0.31,-0.13 0.23,-0.08 0.48,-0.12 0.72,-0.12 0.62,0 1.19,0.25 1.59,0.66 0.41,0.41 0.66,0.97 0.66,1.59 0,0.62 -0.25,1.19 -0.66,1.59 -0.41,0.41 -0.97,0.66 -1.59,0.66 -0.62,0 -1.19,-0.25 -1.59,-0.66 -0.41,-0.41 -0.66,-0.97 -0.66,-1.59 0,-0.05 0,-0.1 0.01,-0.15 0,-0.05 0.01,-0.1 0.01,-0.15 0.01,-0.07 0.07,-0.12 0.14,-0.11 0.07,0.01 0.12,0.07 0.11,0.14 -0.01,0.04 -0.01,0.08 -0.01,0.13 -0,0.04 -0,0.08 -0,0.13 0,0.55 0.22,1.05 0.59,1.41 0.36,0.36 0.86,0.59 1.41,0.59 0.55,0 1.05,-0.22 1.41,-0.59 0.36,-0.36 0.59,-0.86 0.59,-1.41 0,-0.55 -0.22,-1.05 -0.59,-1.41 -0.36,-0.36 -0.86,-0.59 -1.41,-0.59 -0.22,0 -0.44,0.04 -0.64,0.11 -0.1,0.03 -0.2,0.08 -0.3,0.13l0.23 0.03c0.07,0.01 0.12,0.07 0.11,0.14 -0.01,0.07 -0.07,0.12 -0.14,0.11l-0.73 -0.1 0.06 -0.14z"/>
 </g>
</svg>
