<svg xmlns="http://www.w3.org/2000/svg" xml:space="preserve" width="4.6524mm" height="3.8705mm" version="1.1" style="shape-rendering:geometricPrecision; text-rendering:geometricPrecision; image-rendering:optimizeQuality; fill-rule:evenodd; clip-rule:evenodd"
viewBox="0 0 79.51 66.14">
  <path fill="#2B2A29" d="M15.53 18.09l0 -5.26 22.23 0 0 -11.13c0,-0.94 0.77,-1.71 1.71,-1.71 0.94,0 1.71,0.77 1.71,1.71l0 11.13 22.6 0 0 5.92 0.11 0.05 0.18 -0.08 0.07 0.18 0.32 0.13 -0.13 0.33 14.52 35.29 0.36 0c0.19,0.58 0.29,1.18 0.29,1.79 0,5.36 -7.51,9.7 -16.77,9.7 -9.22,0 -16.7,-4.3 -16.77,-9.63l-0.1 -0.04 0.11 -0.27c0.02,-0.53 0.12,-1.05 0.28,-1.55l0.34 0 13.77 -34.51 0 -3.89 -20.85 0 -0.09 0 -20.48 0 0 3.74 14.26 34.66 0.05 0c0.19,0.58 0.29,1.18 0.29,1.79 0,5.36 -7.51,9.7 -16.77,9.7 -9.26,0 -16.77,-4.34 -16.77,-9.7 0,-0.61 0.1,-1.21 0.29,-1.79l0.65 0 14.59 -36.56zm59.65 36.56l-12.65 -30.74 -12.27 30.74 24.92 0zm-45.66 0l-12.65 -30.74 -12.27 30.74 24.92 0z"/>
</svg>