<svg xmlns="http://www.w3.org/2000/svg" xml:space="preserve" width="2.9053mm" height="3mm" version="1.1" style="shape-rendering:geometricPrecision; text-rendering:geometricPrecision; image-rendering:optimizeQuality; fill-rule:evenodd; clip-rule:evenodd"
viewBox="0 0 9.69 10">
  <path fill="#632B1B" d="M4.84 1.13c0.16,0 0.33,0.01 0.49,0.03l0.01 -0.03 0.16 -0.77c0.05,-0.24 0.29,-0.4 0.53,-0.35l0 0c0.24,0.05 0.4,0.29 0.35,0.53l-0.16 0.77c-0,0.02 -0.01,0.04 -0.02,0.06 0.38,0.14 0.73,0.33 1.04,0.56 0.02,-0.03 0.03,-0.05 0.06,-0.08l0.52 -0.58c0.17,-0.18 0.45,-0.2 0.64,-0.03l0 0c0.18,0.17 0.2,0.45 0.03,0.64l-0.52 0.58c-0.03,0.03 -0.06,0.05 -0.09,0.07 0.25,0.29 0.46,0.61 0.61,0.97l0.61 -0.2c0.24,-0.08 0.49,0.05 0.57,0.29l0 0c0.08,0.24 -0.05,0.49 -0.29,0.57l-0.61 0.2c0.05,0.25 0.08,0.51 0.08,0.78 0,0.18 -0.01,0.36 -0.04,0.54l0.57 0.18c0.24,0.08 0.37,0.33 0.29,0.57l-0 0c-0.08,0.24 -0.33,0.37 -0.57,0.29l-0.51 -0.17c-0.14,0.38 -0.34,0.73 -0.59,1.04l0.49 0.55c0.17,0.18 0.15,0.47 -0.03,0.64l-0 0c-0.18,0.17 -0.47,0.15 -0.64,-0.03l-0.45 -0.5c-0.33,0.27 -0.71,0.49 -1.11,0.64l0.12 0.59c0.05,0.24 -0.11,0.48 -0.35,0.53l0 0c-0.24,0.05 -0.48,-0.11 -0.53,-0.35l-0.11 -0.55c-0.18,0.02 -0.35,0.04 -0.53,0.04 -0.19,0 -0.38,-0.01 -0.56,-0.04l-0.11 0.55c-0.05,0.24 -0.29,0.4 -0.53,0.35l0 0c-0.24,-0.05 -0.4,-0.29 -0.35,-0.53l0.12 -0.6c-0.36,-0.14 -0.7,-0.33 -1,-0.56l-0.39 0.44c-0.17,0.18 -0.45,0.2 -0.64,0.03l-0 -0c-0.18,-0.17 -0.2,-0.45 -0.03,-0.64l0.42 -0.46c-0.28,-0.33 -0.5,-0.71 -0.66,-1.13l-0.51 0.16c-0.24,0.08 -0.49,-0.05 -0.57,-0.29l-0 -0c-0.08,-0.24 0.05,-0.49 0.29,-0.57l0.56 -0.18c-0.02,-0.18 -0.04,-0.36 -0.04,-0.54 0,-0.27 0.03,-0.53 0.08,-0.78l-0.6 -0.2c-0.24,-0.08 -0.37,-0.33 -0.29,-0.57l0 -0c0.08,-0.24 0.33,-0.37 0.57,-0.29l0.6 0.19c0.17,-0.38 0.4,-0.73 0.67,-1.03l-0 -0 -0.52 -0.58c-0.17,-0.18 -0.15,-0.47 0.03,-0.64l0 -0c0.18,-0.17 0.47,-0.15 0.64,0.03l0.52 0.58 0.01 0.01c0.28,-0.2 0.59,-0.36 0.92,-0.48 -0.01,-0.02 -0.01,-0.04 -0.02,-0.07l-0.16 -0.77c-0.05,-0.24 0.11,-0.48 0.35,-0.53l0 0c0.24,-0.05 0.48,0.11 0.53,0.35l0.16 0.77 0.01 0.03c0.17,-0.02 0.34,-0.03 0.52,-0.03zm2.03 1.97c-0.52,-0.52 -1.24,-0.84 -2.03,-0.84 -0.79,0 -1.51,0.32 -2.03,0.84 -0.52,0.52 -0.84,1.24 -0.84,2.03 0,0.79 0.32,1.51 0.84,2.03 0.52,0.52 1.24,0.84 2.03,0.84 0.79,0 1.51,-0.32 2.03,-0.84 0.52,-0.52 0.84,-1.24 0.84,-2.03 0,-0.79 -0.32,-1.51 -0.84,-2.03z"/>
</svg>