<svg xmlns="http://www.w3.org/2000/svg" xml:space="preserve" width="3.7402mm" height="2.4949mm" version="1.1" style="shape-rendering:geometricPrecision; text-rendering:geometricPrecision; image-rendering:optimizeQuality; fill-rule:evenodd; clip-rule:evenodd"
viewBox="0 0 9.02 6.01">
  <path fill="#632B1B" d="M1.65 2.72c0.32,0 0.62,0.09 0.87,0.25l0.6 -0.71 -0.19 -1.06 -0.85 -0.42c-0.12,-0.06 -0.17,-0.2 -0.11,-0.32 0.04,-0.09 0.13,-0.14 0.22,-0.13l1.82 -0.05c0.08,-0 0.17,0.04 0.21,0.12 0.07,0.11 0.03,0.26 -0.08,0.33l-0.73 0.43 0.15 0.85 2.46 -0.71 0.02 -1.06c0,-0.13 0.11,-0.24 0.24,-0.24 0.04,0 0.09,0.01 0.12,0.04l1.04 0.64c0.11,0.07 0.15,0.22 0.08,0.33 -0.07,0.11 -0.22,0.15 -0.33,0.08l-0.68 -0.42 -0.02 1.07 0.45 1.04c0.14,-0.04 0.28,-0.06 0.43,-0.06 0.45,0 0.87,0.18 1.17,0.48 0.3,0.3 0.48,0.71 0.48,1.17 0,0.45 -0.18,0.87 -0.48,1.17l-0.01 0.01c-0.3,0.29 -0.71,0.47 -1.16,0.47 -0.46,0 -0.87,-0.18 -1.17,-0.48 -0.3,-0.3 -0.48,-0.71 -0.48,-1.17 0,-0.45 0.18,-0.87 0.48,-1.16 0.09,-0.09 0.19,-0.17 0.3,-0.24l-0.32 -0.73 -1.96 2.29 -0 0 -0 0 -0.01 0.01 -0 0 -0.01 0.01 -0 0 -0.01 0.01 -0.01 0.01 -0 0 -0.01 0 -0 0 -0.01 0 -0.02 0.01 -0.01 0 -0 0 -0 0 -0 0 -0.01 0 -0.01 0 -0.01 0 -0 0 -0 0 -0 0 -0 0 -0 0 -0 0 -0.02 0 -0 0 -0.01 0 -0.01 0 -0 0 -0.01 0 -0 0 -0.77 0c-0.05,0.36 -0.22,0.68 -0.47,0.92l-0.01 0.01c-0.3,0.29 -0.71,0.47 -1.16,0.47 -0.46,0 -0.87,-0.18 -1.17,-0.48 -0.3,-0.3 -0.48,-0.71 -0.48,-1.17 0,-0.45 0.18,-0.87 0.48,-1.16 0.3,-0.3 0.71,-0.48 1.17,-0.48zm2.04 -0.24l0.46 1.41 1.75 -2.05 -2.2 0.64zm0.03 1.65l-0.43 -1.33 -0.4 0.48c0.21,0.23 0.35,0.53 0.39,0.85l0.44 0zm3.87 0.15c0.05,0.12 -0,0.26 -0.13,0.32 -0.12,0.05 -0.26,-0 -0.32,-0.13l-0.52 -1.21c-0.07,0.05 -0.14,0.11 -0.2,0.17 -0.24,0.24 -0.39,0.58 -0.39,0.95 0,0.37 0.15,0.71 0.39,0.95 0.24,0.24 0.58,0.39 0.95,0.39 0.37,0 0.7,-0.15 0.94,-0.38l0.01 -0.01c0.24,-0.24 0.39,-0.58 0.39,-0.95 0,-0.37 -0.15,-0.71 -0.39,-0.95 -0.24,-0.24 -0.58,-0.39 -0.95,-0.39 -0.1,0 -0.21,0.01 -0.3,0.03l0.52 1.21zm-4.62 0.34l-1.32 0c-0.13,0 -0.24,-0.11 -0.24,-0.24 0,-0.06 0.02,-0.12 0.07,-0.17l0.84 -1c-0.2,-0.11 -0.42,-0.18 -0.67,-0.18 -0.37,0 -0.71,0.15 -0.95,0.39 -0.24,0.24 -0.39,0.58 -0.39,0.95 0,0.37 0.15,0.71 0.39,0.95 0.24,0.24 0.58,0.39 0.95,0.39 0.37,0 0.7,-0.15 0.94,-0.38l0.01 -0.01c0.19,-0.19 0.32,-0.43 0.37,-0.71zm-0.28 -1.09l-0.52 0.61 0.8 0c-0.04,-0.23 -0.14,-0.44 -0.28,-0.61z"/>
</svg>