<svg xmlns="http://www.w3.org/2000/svg" xml:space="preserve" width="2.7491mm" height="2.3109mm" version="1.1" style="shape-rendering:geometricPrecision; text-rendering:geometricPrecision; image-rendering:optimizeQuality; fill-rule:evenodd; clip-rule:evenodd"
viewBox="0 0 10.57 8.88">
  <path fill="#632B1B" d="M3.23 6.72l3.76 0 1.03 -0.95 -0.07 -2.97 -0.42 -0.27c-0.11,-0.07 -0.18,-0.2 -0.18,-0.32l-0 -1.21 -0.51 -0.27c-0.19,-0.1 -0.26,-0.33 -0.16,-0.52 0.1,-0.19 0.33,-0.26 0.52,-0.16l0.7 0.37c0.13,0.06 0.23,0.19 0.23,0.35l0 1.23 0.42 0.27c0.1,0.07 0.17,0.18 0.18,0.31l0.08 3.11c0.06,-0.01 0.12,-0.01 0.17,-0.01 0.44,0 0.84,0.18 1.13,0.47 0.29,0.29 0.47,0.69 0.47,1.13 0,0.44 -0.18,0.84 -0.47,1.13 -0.29,0.29 -0.69,0.47 -1.13,0.47 -0.44,0 -0.84,-0.18 -1.13,-0.47 -0.26,-0.26 -0.43,-0.61 -0.46,-1 -0.06,0.05 -0.14,0.07 -0.23,0.07l-3.85 0c-0.06,0.35 -0.22,0.67 -0.47,0.91 -0.3,0.3 -0.72,0.49 -1.17,0.49 -0.46,0 -0.87,-0.19 -1.17,-0.49 -0.3,-0.3 -0.49,-0.72 -0.49,-1.17 0,-0.46 0.19,-0.87 0.49,-1.17 0.3,-0.3 0.72,-0.49 1.17,-0.49 0.46,0 0.87,0.19 1.17,0.49 0.18,0.18 0.32,0.41 0.41,0.66zm6.33 -0.02c-0.15,-0.15 -0.36,-0.24 -0.59,-0.24 -0.23,0 -0.44,0.09 -0.59,0.24 -0.15,0.15 -0.24,0.36 -0.24,0.59 0,0.23 0.09,0.44 0.24,0.59 0.15,0.15 0.36,0.24 0.59,0.24 0.23,0 0.44,-0.09 0.59,-0.24 0.15,-0.15 0.24,-0.36 0.24,-0.59 0,-0.23 -0.09,-0.44 -0.24,-0.59zm-7.27 -0.09c-0.16,-0.16 -0.38,-0.26 -0.63,-0.26 -0.25,0 -0.47,0.1 -0.63,0.26 -0.16,0.16 -0.26,0.38 -0.26,0.63 0,0.25 0.1,0.47 0.26,0.63 0.16,0.16 0.38,0.26 0.63,0.26 0.25,0 0.47,-0.1 0.63,-0.26 0.16,-0.16 0.26,-0.38 0.26,-0.63 0,-0.25 -0.1,-0.47 -0.26,-0.63z"/>
</svg>