<?xml version="1.0" encoding="UTF-8"?>
<!DOCTYPE svg PUBLIC "-//W3C//DTD SVG 1.1//EN" "http://www.w3.org/Graphics/SVG/1.1/DTD/svg11.dtd">
<!-- Creator: CorelDRAW 2019 (64-Bit) -->
<svg xmlns="http://www.w3.org/2000/svg" xml:space="preserve" width="5.1957mm" height="3.7398mm" version="1.1" style="shape-rendering:geometricPrecision; text-rendering:geometricPrecision; image-rendering:optimizeQuality; fill-rule:evenodd; clip-rule:evenodd"
viewBox="0 0 9.72 7"
 xmlns:xlink="http://www.w3.org/1999/xlink"
 xmlns:xodm="http://www.corel.com/coreldraw/odm/2003">
 <defs>
  <style type="text/css">
   <![CDATA[
    .fil0 {fill:#632B1B;fill-rule:nonzero}
   ]]>
  </style>
 </defs>
 <g id="Слой_x0020_1">
  <metadata id="CorelCorpID_0Corel-Layer"/>
  <path class="fil0" d="M8.5 3.57c0.13,-0.32 0.5,-0.48 0.82,-0.35 0.32,0.13 0.48,0.5 0.35,0.82l-0.89 2.2c0.01,0.05 0.01,0.1 0.01,0.15 -0.02,0.35 -0.31,0.62 -0.66,0.6l-3.05 -0.14c-0.35,-0.02 -0.62,-0.31 -0.6,-0.66 0.02,-0.35 0.31,-0.62 0.66,-0.6l1.78 0.08 -1.76 -2.44 -1.54 1.42c-0.26,0.24 -0.66,0.22 -0.89,-0.04 -0.03,-0.03 -0.05,-0.06 -0.07,-0.09l-2.53 -3.52c-0.2,-0.28 -0.14,-0.68 0.14,-0.88 0.28,-0.2 0.68,-0.14 0.88,0.14l2.14 2.97 1.54 -1.42 0.06 -0.05c0.28,-0.2 0.68,-0.14 0.88,0.14l2.18 3.03 0.56 -1.37z"/>
 </g>
</svg>
