<?xml version="1.0" encoding="UTF-8"?>
<!DOCTYPE svg PUBLIC "-//W3C//DTD SVG 1.1//EN" "http://www.w3.org/Graphics/SVG/1.1/DTD/svg11.dtd">
<!-- Creator: CorelDRAW 2019 (64-Bit) -->
<svg xmlns="http://www.w3.org/2000/svg" xml:space="preserve" width="5.1968mm" height="5.1968mm" version="1.1" style="shape-rendering:geometricPrecision; text-rendering:geometricPrecision; image-rendering:optimizeQuality; fill-rule:evenodd; clip-rule:evenodd"
viewBox="0 0 9.72 9.72"
 xmlns:xlink="http://www.w3.org/1999/xlink"
 xmlns:xodm="http://www.corel.com/coreldraw/odm/2003">
 <defs>
  <style type="text/css">
   <![CDATA[
    .fil0 {fill:#632B1B;fill-rule:nonzero}
   ]]>
  </style>
 </defs>
 <g id="Слой_x0020_1">
  <metadata id="CorelCorpID_0Corel-Layer"/>
  <path class="fil0" d="M4.26 0c1.18,0 2.24,0.48 3.01,1.25l0 0c0.77,0.77 1.25,1.84 1.25,3.01 0,0.98 -0.33,1.89 -0.89,2.61l1.89 1.75c0.26,0.24 0.27,0.64 0.03,0.89 -0.24,0.26 -0.64,0.27 -0.89,0.03l-1.94 -1.8c-0.69,0.49 -1.54,0.78 -2.45,0.78 -1.18,0 -2.24,-0.48 -3.01,-1.25l-0 -0c-0.77,-0.77 -1.25,-1.84 -1.25,-3.01 0,-1.18 0.48,-2.24 1.25,-3.01l0 -0c0.77,-0.77 1.84,-1.25 3.01,-1.25zm2.12 2.14c-0.54,-0.54 -1.29,-0.88 -2.12,-0.88 -0.83,0 -1.58,0.33 -2.12,0.88 -0.54,0.54 -0.88,1.29 -0.88,2.12 0,0.83 0.33,1.58 0.88,2.12 0.54,0.54 1.29,0.88 2.12,0.88 0.79,0 1.5,-0.3 2.03,-0.79l0.03 -0.03 0.05 -0.05c0.54,-0.54 0.88,-1.29 0.88,-2.12 0,-0.83 -0.33,-1.58 -0.88,-2.12z"/>
 </g>
</svg>
