<?xml version="1.0" encoding="UTF-8"?>
<!DOCTYPE svg PUBLIC "-//W3C//DTD SVG 1.1//EN" "http://www.w3.org/Graphics/SVG/1.1/DTD/svg11.dtd">
<!-- Creator: CorelDRAW 2019 (64-Bit) -->
<svg xmlns="http://www.w3.org/2000/svg" xml:space="preserve" width="5.4398mm" height="6.895mm" version="1.1" style="shape-rendering:geometricPrecision; text-rendering:geometricPrecision; image-rendering:optimizeQuality; fill-rule:evenodd; clip-rule:evenodd"
viewBox="0 0 10.67 13.52"
 xmlns:xlink="http://www.w3.org/1999/xlink"
 xmlns:xodm="http://www.corel.com/coreldraw/odm/2003">
 <defs>
  <style type="text/css">
   <![CDATA[
    .fil0 {fill:#632B1B;fill-rule:nonzero}
   ]]>
  </style>
 </defs>
 <g id="Слой_x0020_1">
  <metadata id="CorelCorpID_0Corel-Layer"/>
  <path class="fil0" d="M5.33 0c1.47,0 2.81,0.6 3.77,1.56 0.97,0.97 1.56,2.3 1.56,3.77 0,1.13 -0.67,2.59 -1.51,3.96 -1.37,2.21 -3.41,4.23 -3.82,4.23 -0.41,0 -2.45,-2.02 -3.82,-4.23 -0.85,-1.36 -1.51,-2.82 -1.51,-3.95 0,-1.47 0.6,-2.81 1.56,-3.77l0 0c0.97,-0.97 2.3,-1.56 3.77,-1.56zm0 2.68c0.73,0 1.38,0.29 1.86,0.77 0.48,0.48 0.77,1.13 0.77,1.86 0,0.72 -0.29,1.38 -0.77,1.86l0 0c-0.48,0.48 -1.13,0.77 -1.86,0.77 -0.72,0 -1.38,-0.29 -1.86,-0.77l-0 -0c-0.48,-0.48 -0.77,-1.13 -0.77,-1.86 0,-0.73 0.29,-1.38 0.77,-1.86l0 0c0.48,-0.48 1.13,-0.77 1.86,-0.77zm0.92 1.71c-0.24,-0.24 -0.56,-0.38 -0.92,-0.38 -0.36,0 -0.69,0.15 -0.92,0.38 -0.23,0.24 -0.38,0.56 -0.38,0.92 0,0.36 0.15,0.69 0.38,0.92 0.24,0.23 0.56,0.38 0.92,0.38 0.36,0 0.69,-0.15 0.92,-0.38 0.24,-0.23 0.38,-0.56 0.38,-0.92 0,-0.36 -0.15,-0.69 -0.38,-0.92zm1.91 -1.89c-0.72,-0.72 -1.73,-1.17 -2.83,-1.17 -1.11,0 -2.11,0.45 -2.83,1.17 -0.72,0.73 -1.17,1.73 -1.17,2.83 0,0.85 0.58,2.07 1.31,3.25l0 0c1.17,1.88 2.54,3.6 2.69,3.6 0.16,0 1.53,-1.72 2.69,-3.6l0 -0c0.73,-1.18 1.31,-2.4 1.31,-3.25 0,-1.11 -0.45,-2.11 -1.17,-2.83z"/>
 </g>
</svg>
